<svg data-v-423bf9ae="" xmlns="http://www.w3.org/2000/svg" viewBox="0 0 775 94" class="iconLeft"><!----><!----><!----><g data-v-423bf9ae="" id="80c0aa71-74eb-4e66-bd5c-61a60fdb1603" fill="gray" transform="matrix(4.559270569581267,0,0,4.559270569581267,86.6370080234409,0.11410222136039039)"><path d="M4.80 13.94C5.96 13.94 7.04 13.41 7.66 12.82L7.66 8.58L4.48 8.58L4.48 10.26L5.81 10.26L5.81 11.87C5.61 12.07 5.26 12.17 4.91 12.17C3.47 12.17 2.74 11.05 2.74 9.14C2.74 7.27 3.64 6.15 4.83 6.15C5.56 6.15 5.98 6.41 6.37 6.82L7.50 5.54C6.92 4.94 6.06 4.37 4.83 4.37C2.46 4.37 0.62 6.12 0.62 9.21C0.62 12.31 2.46 13.94 4.80 13.94ZM10.02 13.78L12.08 13.78L12.08 10.02C12.67 8.74 13.57 8.26 14.42 8.26C14.94 8.26 15.22 8.34 15.65 8.47L16.07 6.75C15.67 6.57 15.34 6.45 14.73 6.45C13.62 6.45 12.60 7.03 11.91 8.20L11.87 8.20L11.70 6.64L10.02 6.64ZM21.42 13.94C22.34 13.94 23.38 13.62 24.16 13.12L23.49 11.87C22.88 12.21 22.33 12.38 21.70 12.38C20.68 12.38 19.82 11.90 19.68 10.81L24.36 10.81C24.39 10.63 24.44 10.25 24.44 9.88C24.44 7.94 23.32 6.45 21.18 6.45C19.33 6.45 17.57 7.87 17.57 10.21C17.57 12.57 19.26 13.94 21.42 13.94ZM19.66 9.44C19.84 8.48 20.48 8.04 21.22 8.04C22.16 8.04 22.58 8.60 22.58 9.44ZM29.82 13.94C30.74 13.94 31.78 13.62 32.56 13.12L31.89 11.87C31.28 12.21 30.73 12.38 30.10 12.38C29.08 12.38 28.22 11.90 28.08 10.81L32.76 10.81C32.79 10.63 32.84 10.25 32.84 9.88C32.84 7.94 31.72 6.45 29.58 6.45C27.73 6.45 25.97 7.87 25.97 10.21C25.97 12.57 27.66 13.94 29.82 13.94ZM28.06 9.44C28.24 8.48 28.88 8.04 29.62 8.04C30.56 8.04 30.98 8.60 30.98 9.44ZM34.61 13.78L36.67 13.78L36.67 9.00C37.16 8.48 37.52 8.20 38.08 8.20C38.84 8.20 39.10 8.65 39.10 9.63L39.10 13.78L41.16 13.78L41.16 9.37C41.16 7.56 40.46 6.45 38.89 6.45C37.86 6.45 37.10 6.99 36.50 7.60L36.44 7.60L36.29 6.64L34.61 6.64ZM46.73 13.94C48.29 13.94 49.74 12.53 49.74 10.08C49.74 7.88 48.68 6.45 46.94 6.45C46.27 6.45 45.56 6.78 45.01 7.29L45.07 6.16L45.07 3.65L43.01 3.65L43.01 13.78L44.62 13.78L44.79 12.99L44.84 12.99C45.42 13.62 46.09 13.94 46.73 13.94ZM46.27 12.26C45.91 12.26 45.46 12.14 45.07 11.77L45.07 8.83C45.50 8.36 45.91 8.13 46.35 8.13C47.22 8.13 47.63 8.82 47.63 10.12C47.63 11.61 47.03 12.26 46.27 12.26ZM55.02 13.94C55.94 13.94 56.98 13.62 57.76 13.12L57.09 11.87C56.48 12.21 55.93 12.38 55.30 12.38C54.28 12.38 53.42 11.90 53.28 10.81L57.96 10.81C57.99 10.63 58.04 10.25 58.04 9.88C58.04 7.94 56.92 6.45 54.78 6.45C52.93 6.45 51.17 7.87 51.17 10.21C51.17 12.57 52.86 13.94 55.02 13.94ZM53.26 9.44C53.44 8.48 54.08 8.04 54.82 8.04C55.76 8.04 56.18 8.60 56.18 9.44ZM64.33 13.94C65.20 13.94 65.69 13.79 66.42 13.55L65.95 12.04C65.52 12.22 65.18 12.28 64.86 12.28C64.29 12.28 63.74 11.98 63.74 11.10L63.74 3.65L59.67 3.65L59.67 5.28L61.68 5.28L61.68 11.00C61.68 12.81 62.58 13.94 64.33 13.94ZM72.63 13.94C73.53 13.94 74.28 13.75 74.90 13.55L74.54 12.07C74.13 12.22 73.68 12.33 73.15 12.33C72.14 12.33 71.69 11.90 71.69 10.81L71.69 8.25L74.63 8.25L74.63 6.64L71.69 6.64L71.69 3.70L69.73 4.54L69.73 6.64L67.89 6.64L67.89 8.25L69.64 8.25L69.64 10.82C69.64 12.68 70.42 13.94 72.63 13.94ZM85.04 13.78L87.09 13.78L87.09 10.63L88.37 10.63C90.30 10.63 91.94 9.66 91.94 7.50C91.94 5.26 90.34 4.54 88.37 4.54L85.04 4.54ZM87.09 8.99L87.09 6.17L88.24 6.17C89.33 6.17 89.91 6.52 89.91 7.50C89.91 8.47 89.38 8.99 88.24 8.99ZM93.41 13.78L95.47 13.78L95.47 9.00C95.96 8.48 96.32 8.20 96.88 8.20C97.64 8.20 97.90 8.65 97.90 9.63L97.90 13.78L99.96 13.78L99.96 9.37C99.96 7.56 99.26 6.45 97.71 6.45C96.66 6.45 95.90 6.99 95.35 7.55L95.47 6.16L95.47 3.65L93.41 3.65ZM103.94 13.94C104.83 13.94 105.70 13.51 106.40 12.96L106.46 12.96L106.61 13.78L108.29 13.78L108.29 9.66C108.29 7.50 107.10 6.45 105.15 6.45C103.96 6.45 102.86 6.87 102.19 7.43L102.91 8.78C103.42 8.37 104.08 8.11 104.75 8.11C105.69 8.11 106.16 8.51 106.23 9.18C102.94 9.39 101.65 10.21 101.65 11.80C101.65 13.01 102.54 13.94 103.94 13.94ZM104.59 12.35C104.01 12.35 103.63 12.12 103.63 11.65C103.63 11.00 104.19 10.54 106.23 10.42L106.23 11.65C105.74 12.05 105.21 12.35 104.59 12.35ZM110.82 13.78L112.88 13.78L112.88 10.02C113.47 8.74 114.37 8.26 115.22 8.26C115.74 8.26 116.02 8.34 116.45 8.47L116.87 6.75C116.47 6.57 116.14 6.45 115.53 6.45C114.42 6.45 113.40 7.03 112.71 8.20L112.67 8.20L112.50 6.64L110.82 6.64ZM118.10 13.78L120.04 13.78L120.04 8.93C120.23 8.46 120.40 8.20 120.67 8.20C120.93 8.20 121.07 8.44 121.07 8.92L121.07 13.78L122.65 13.78L122.65 8.93C122.84 8.46 123.03 8.20 123.30 8.20C123.58 8.20 123.69 8.44 123.69 8.92L123.69 13.78L125.62 13.78L125.62 8.76C125.62 7.34 125.05 6.45 124.08 6.45C123.30 6.45 122.81 6.97 122.56 7.63C122.39 6.86 121.95 6.45 121.34 6.45C120.54 6.45 120.12 6.93 119.85 7.53L119.80 7.53L119.64 6.64L118.10 6.64ZM129.14 13.94C130.03 13.94 130.90 13.51 131.60 12.96L131.66 12.96L131.81 13.78L133.49 13.78L133.49 9.66C133.49 7.50 132.30 6.45 130.35 6.45C129.16 6.45 128.06 6.87 127.39 7.43L128.11 8.78C128.62 8.37 129.28 8.11 129.95 8.11C130.89 8.11 131.36 8.51 131.43 9.18C128.14 9.39 126.85 10.21 126.85 11.80C126.85 13.01 127.74 13.94 129.14 13.94ZM129.79 12.35C129.21 12.35 128.83 12.12 128.83 11.65C128.83 11.00 129.39 10.54 131.43 10.42L131.43 11.65C130.94 12.05 130.41 12.35 129.79 12.35ZM139.20 13.94C140.15 13.94 141.23 13.61 142.07 12.89L141.23 11.59C140.74 11.96 140.13 12.28 139.40 12.28C138.25 12.28 137.45 11.47 137.45 10.21C137.45 8.95 138.28 8.12 139.47 8.12C139.99 8.12 140.48 8.30 141.01 8.71L141.96 7.43C141.37 6.87 140.45 6.45 139.36 6.45C137.21 6.45 135.34 7.83 135.34 10.21C135.34 12.59 137.02 13.94 139.20 13.94ZM144.80 16.81C146.55 16.81 147.38 15.89 148.04 14.11L150.79 6.64L148.85 6.64L147.83 9.76C147.60 10.46 147.38 11.20 147.20 11.90L147.14 11.90C146.92 11.16 146.69 10.43 146.44 9.76L145.28 6.64L143.23 6.64L146.24 13.61L146.02 14.18C145.88 14.53 145.45 15.19 144.65 15.19C144.47 15.19 144.28 15.16 144.10 15.11L143.74 16.67C144.03 16.76 144.40 16.81 144.80 16.81Z"></path></g><!----><g data-v-423bf9ae="" id="6dbbbafc-64e6-49dc-a62a-15eeaed661ab" transform="matrix(1.0193183051215278,0,0,1.0193183051215278,-21.138101336458284,-2.8134022249723785)" stroke="none" fill="gray"><switch><g><path clip-rule="evenodd" d="M89.12 29.193c-.287-3.641-1.41-7.043-3.025-10.138-3.244-6.167-8.615-11.219-15.093-13.863-3.259-1.321-6.628-2.005-10.17-2.171-3.321-.1-6.692.159-10.001.853a32.358 32.358 0 0 0-9.509 3.582c-1.56.913-3.024 1.943-4.37 3.151-1.545.253-3.288.836-4.78 2.023-2.903 2.31-4.445 7.153-3.698 8.093.748.939 5.858.491 8.717-1.783 2.238-1.78 3.317-4.414 3.675-6.206a25.027 25.027 0 0 1 2.518-1.501c2.604-1.316 5.446-2.149 8.353-2.652 2.908-.511 5.905-.65 8.905-.46 2.773.229 5.685.897 8.26 2.063 5.244 2.213 9.625 6.392 12.224 11.451 1.292 2.521 2.143 5.274 2.324 7.957.045.706.045 1.249.004 2.05-.048.559-.124 1.24-.258 1.924a24.096 24.096 0 0 1-1.18 4.072c-1.033 2.689-2.506 5.251-4.265 7.566-1.783 2.293-3.818 4.403-6.177 6.055-2.342 1.66-4.964 2.905-7.744 3.556-2.774.702-5.693.762-8.588.377-.759-.06-2.242-.112-2.242-.159v-3.334C81 50.844 81.268 30 81.268 30h-60.24S22 50.842 50 51.699v3.199c-3-.013-3.006.009-4.386.115-1.69.163-3.663.488-5.388 1.363-1.762.837-3.196 2.355-4.162 3.766l-.791 1.126c-.16.244-.542.924-.691 1.371-.375.995-.488 2.067-.426 3.086.13 2.059 1.031 3.832 2.114 5.303 2.232 2.932 5.319 4.949 8.757 6.017l.056.018.44.021c1.385.308 1.477.604 4.477.904v5.692c-11 .481-11 5.643-11 5.643V90h14.577c-1.541 2-3.126 2.682-4.713 4.104l.007.037c-.221.077-.391.212-.371.352.025.173.302.282.617.235a.831.831 0 0 0 .377-.142c1.411-.311 2.752-.773 4.065-1.338 1.419-.631 2.787-1.438 4.102-2.342.374-.271.746-.906 1.112-.906H64v-.677s-.104-1.525-2.148-2.998c.209-.372.534-.762.69-1.196.084-.241.232-.479.293-.815l.119-.468.044-.287c.052-.604.025-1.008-.03-1.543a6.638 6.638 0 0 0-1.133-2.959 7.84 7.84 0 0 0-2.179-2.052c-1.581-.989-3.148-1.514-4.672-1.976-.669-.199-1.984-.368-1.984-.53V59.146c0 .068 1.036.138 1.537.212 3.347.614 6.865.711 10.283.018 3.42-.653 6.687-2.048 9.584-3.929 5.84-3.777 10.162-9.407 12.781-15.765a29.732 29.732 0 0 0 1.539-5.017c.182-.868.313-1.758.4-2.777.065-.779.073-1.823-.004-2.695zm-35.294 49.87c1.354.377 2.656.831 3.635 1.428.992.612 1.509 1.184 1.7 2.109.04.208.084.557.067.702l-.015.276a.441.441 0 0 0-.026.083c.003.036-.029.154-.065.271a4.2 4.2 0 0 1-.331.775C57.28 84.211 55 83.832 53 83.695v-4.831c0 .069.561.128.826.199zM50 73.692c-3-.212-2.459-.424-3.503-.648-2.592-.765-5.223-2.358-6.841-4.451-.811-1.046-1.477-2.197-1.724-3.3-.223-1.148-.107-2.041.798-3.267.819-1.186 1.722-2.031 2.861-2.525 1.133-.518 2.856-.742 4.313-.809 1.219-.055 1.096-.01 4.096.078v14.922z"></path></g></switch></g><!----></svg>
